<?xml version="1.0" standalone="no"?><!DOCTYPE svg PUBLIC "-//W3C//DTD SVG 1.1//EN" "http://www.w3.org/Graphics/SVG/1.1/DTD/svg11.dtd"><svg t="1715740345289" class="icon" viewBox="0 0 1024 1024" version="1.1" xmlns="http://www.w3.org/2000/svg" p-id="4910" xmlns:xlink="http://www.w3.org/1999/xlink" width="200" height="200"><path d="M461.653333 946.688c-18.090667-5.461333-35.669333-13.141333-52.224-23.552-29.184-18.261333-57.856-39.424-91.306666-47.786667-30.549333-7.68-65.706667-3.413333-94.037334-19.285333-25.941333-14.506667-48.128-43.690667-54.954666-72.533333-6.314667-26.624 1.706667-52.394667-0.512-79.36-2.56-31.914667-12.970667-62.805333-24.746667-92.330667-18.602667-46.421333-40.106667-88.405333-43.52-139.434667-3.072-45.397333 6.485333-92.16 30.378667-130.730666 24.234667-39.253333 61.098667-67.413333 102.570666-86.186667 20.650667-9.386667 42.496-16.554667 64.341334-22.357333 23.552-6.314667 48.298667-6.826667 68.266666-22.528 13.141333-10.410667 22.528-24.576 34.304-36.522667 46.933333-47.786667 126.464-27.306667 176.298667 4.608 11.605333 7.509333 22.528 16.213333 35.328 21.674667 47.274667 20.309333 104.106667 0.853333 148.821333 28.672 31.914667 19.797333 45.909333 57.856 58.197334 91.477333 16.213333 44.202667 38.4 86.016 56.149333 129.536 26.624 64.853333 36.522667 132.949333 24.234667 202.069333-12.117333 67.925333-57.685333 128.853333-103.765334 178.176-47.616 51.029333-101.034667 99.328-170.325333 116.053334-54.101333 12.8-111.274667 16.042667-163.498667 0.341333z" fill="#FBF8E7" p-id="4911"></path><path d="M562.858667 638.122667m-163.84 0a163.84 163.84 0 1 0 327.68 0 163.84 163.84 0 1 0-327.68 0Z" fill="#FFEC24" p-id="4912"></path><path d="M887.978667 444.586667c-7.68-18.602667-16.042667-37.034667-24.234667-54.784-11.093333-24.064-22.528-49.152-31.744-74.24-12.458667-33.792-27.818667-75.946667-63.829333-98.474667-27.477333-17.066667-57.685333-18.261333-86.869334-19.626667-22.869333-1.024-44.544-1.877333-63.658666-10.069333-8.021333-3.413333-15.530667-8.533333-23.552-13.994667-3.242667-2.218667-6.485333-4.437333-9.728-6.485333-57.856-37.376-143.189333-54.101333-193.706667-2.730667-4.608 4.778667-9.045333 9.898667-13.312 14.848-6.485333 7.68-12.629333 14.848-19.797333 20.48-11.946667 9.386667-26.282667 12.288-43.008 15.530667-6.656 1.365333-13.482667 2.730667-20.138667 4.437333-25.429333 6.826667-47.274667 14.336-66.56 23.04-47.445333 21.504-84.992 53.248-108.714667 91.648-24.234667 39.253333-35.669333 88.746667-32.256 139.093334C89.770667 517.290667 105.813333 555.349333 121.173333 592.213333c3.413333 8.192 6.826667 16.384 10.24 24.746667 10.24 25.770667 21.162667 56.490667 23.722667 88.234667 0.853333 10.069333 0 20.309333-0.853333 31.061333-1.194667 16.042667-2.56 32.768 1.706666 50.346667 7.68 32.426667 32.426667 65.194667 61.781334 81.578666 20.309333 11.264 42.325333 13.482667 63.829333 15.701334 11.946667 1.194667 23.210667 2.389333 33.621333 4.949333 25.770667 6.485333 48.469333 21.162667 72.704 36.693333 4.949333 3.072 9.728 6.314667 14.677334 9.386667 17.066667 10.752 35.84 19.114667 55.637333 25.088 24.917333 7.509333 51.541333 11.264 79.872 11.264 28.672 0 59.050667-3.754667 90.965333-11.434667 74.069333-17.749333 129.024-68.266667 177.322667-119.978666 62.634667-67.242667 96.768-126.122667 107.178667-185.173334 11.776-68.949333 3.242667-139.605333-25.6-210.090666z m-2.389334 204.970666c-9.386667 52.906667-42.154667 108.885333-100.181333 171.178667-45.397333 48.64-96.597333 95.914667-163.498667 111.957333-58.538667 13.994667-111.104 14.336-156.330666 0.682667-17.408-5.290667-33.792-12.629333-48.810667-22.016l-14.336-9.216c-24.917333-16.042667-50.858667-32.768-80.896-40.277333-12.458667-3.072-25.258667-4.437333-37.546667-5.632-19.456-1.877333-37.717333-3.754667-52.906666-12.288-22.528-12.629333-42.325333-38.741333-48.128-63.658667-3.242667-13.482667-2.048-27.136-1.024-41.813333 0.853333-11.264 1.706667-23.04 0.853333-35.328-2.901333-35.498667-14.677333-68.608-25.6-96.256-3.413333-8.533333-6.826667-16.896-10.410667-25.258667-15.189333-36.352-29.525333-70.485333-32.085333-110.08-3.072-44.544 6.997333-88.064 28.330667-122.538667 21.162667-34.133333 53.589333-61.44 96.426666-80.896 17.92-8.192 38.229333-15.189333 62.293334-21.504 6.144-1.536 12.288-2.901333 18.432-4.096 18.602667-3.584 37.717333-7.509333 54.954666-20.992 9.216-7.338667 16.554667-15.872 23.722667-24.234666 3.925333-4.608 7.68-9.216 11.946667-13.482667 16.896-17.237333 39.253333-24.234667 63.317333-24.234667 32.256 0 67.413333 12.8 95.402667 30.890667 3.072 2.048 6.144 4.096 9.045333 6.144 8.704 5.973333 17.749333 12.117333 28.16 16.554667 23.893333 10.24 49.152 11.264 73.557333 12.288 26.794667 1.194667 52.224 2.218667 73.386667 15.36 27.989333 17.408 40.96 52.906667 52.394667 84.309333 9.557333 26.112 21.333333 51.712 32.597333 76.288 8.021333 17.578667 16.384 35.669333 23.722667 53.76 26.624 65.536 34.474667 130.901333 23.210666 194.389333z" fill="#572C00" p-id="4913"></path><path d="M562.858667 460.288c-97.962667 0-177.834667 79.701333-177.834667 177.834667S464.896 815.786667 562.858667 815.786667 740.693333 736.085333 740.693333 638.122667s-79.701333-177.834667-177.834666-177.834667z m0 327.68c-82.602667 0-149.845333-67.242667-149.845334-149.845333s67.242667-149.845333 149.845334-149.845334 149.845333 67.242667 149.845333 149.845334-67.072 149.845333-149.845333 149.845333z" fill="#572C00" p-id="4914"></path></svg>